<?xml version="1.0" encoding="UTF-8"?>
<svg version="1.1" xmlns="http://www.w3.org/2000/svg" width="1000" height="1000">
<path d="M0 0 C330 0 660 0 1000 0 C1000 330 1000 660 1000 1000 C670 1000 340 1000 0 1000 C0 670 0 340 0 0 Z " fill="#FEFEFE" transform="translate(0,0)"/>
<path d="M0 0 C10.23 0 20.46 0 31 0 C31 10.23 31 20.46 31 31 C40.9 31 50.8 31 61 31 C61 40.9 61 50.8 61 61 C70.9 61 80.8 61 91 61 C91 70.9 91 80.8 91 91 C111.13 91 131.26 91 152 91 C152 100.9 152 110.8 152 121 C131.87 121 111.74 121 91 121 C91 131.23 91 141.46 91 152 C121.03 152 151.06 152 182 152 C182 171.8 182 191.6 182 212 C161.87 212 141.74 212 121 212 C121 222.23 121 232.46 121 243 C141.13 243 161.26 243 182 243 C182 252.9 182 262.8 182 273 C192.23 273 202.46 273 213 273 C213 263.1 213 253.2 213 243 C222.9 243 232.8 243 243 243 C243 232.77 243 222.54 243 212 C252.9 212 262.8 212 273 212 C273 222.23 273 232.46 273 243 C282.9 243 292.8 243 303 243 C303 262.8 303 282.6 303 303 C283.2 303 263.4 303 243 303 C243 312.9 243 322.8 243 333 C262.8 333 282.6 333 303 333 C303 353.13 303 373.26 303 394 C293.1 394 283.2 394 273 394 C273 384.1 273 374.2 273 364 C263.1 364 253.2 364 243 364 C243 384.13 243 404.26 243 425 C252.9 425 262.8 425 273 425 C273 444.8 273 464.6 273 485 C263.1 485 253.2 485 243 485 C243 495.23 243 505.46 243 516 C232.77 516 222.54 516 212 516 C212 505.77 212 495.54 212 485 C192.2 485 172.4 485 152 485 C152 475.1 152 465.2 152 455 C121.97 455 91.94 455 61 455 C61 464.9 61 474.8 61 485 C51.1 485 41.2 485 31 485 C31 495.23 31 505.46 31 516 C20.77 516 10.54 516 0 516 C0 505.77 0 495.54 0 485 C-9.9 485 -19.8 485 -30 485 C-30 464.87 -30 444.74 -30 424 C-39.9 424 -49.8 424 -60 424 C-60 404.2 -60 384.4 -60 364 C-70.23 364 -80.46 364 -91 364 C-91 353.77 -91 343.54 -91 333 C-80.77 333 -70.54 333 -60 333 C-60 323.1 -60 313.2 -60 303 C-80.13 303 -100.26 303 -121 303 C-121 293.1 -121 283.2 -121 273 C-130.9 273 -140.8 273 -151 273 C-151 263.1 -151 253.2 -151 243 C-160.9 243 -170.8 243 -181 243 C-181 282.93 -181 322.86 -181 364 C-191.23 364 -201.46 364 -212 364 C-212 373.9 -212 383.8 -212 394 C-221.9 394 -231.8 394 -242 394 C-242 434.26 -242 474.52 -242 516 C-272.03 516 -302.06 516 -333 516 C-333 505.77 -333 495.54 -333 485 C-323.1 485 -313.2 485 -303 485 C-303 475.1 -303 465.2 -303 455 C-312.9 455 -322.8 455 -333 455 C-333 415.07 -333 375.14 -333 334 C-323.1 334 -313.2 334 -303 334 C-303 364.03 -303 394.06 -303 425 C-292.77 425 -282.54 425 -272 425 C-272 384.74 -272 344.48 -272 303 C-292.13 303 -312.26 303 -333 303 C-333 293.1 -333 283.2 -333 273 C-302.97 273 -272.94 273 -242 273 C-242 263.1 -242 253.2 -242 243 C-232.1 243 -222.2 243 -212 243 C-212 212.97 -212 182.94 -212 152 C-172.07 152 -132.14 152 -91 152 C-91 131.87 -91 111.74 -91 91 C-80.77 91 -70.54 91 -60 91 C-60 81.1 -60 71.2 -60 61 C-40.2 61 -20.4 61 0 61 C0 40.87 0 20.74 0 0 Z " fill="#020202" transform="translate(636,424)"/>
<path d="M0 0 C30.03 0 60.06 0 91 0 C91 9.9 91 19.8 91 30 C101.23 30 111.46 30 122 30 C122 20.1 122 10.2 122 0 C161.93 0 201.86 0 243 0 C243 9.9 243 19.8 243 30 C212.97 30 182.94 30 152 30 C152 39.9 152 49.8 152 60 C131.87 60 111.74 60 91 60 C91 80.13 91 100.26 91 121 C101.23 121 111.46 121 122 121 C122 130.9 122 140.8 122 151 C101.87 151 81.74 151 61 151 C61 141.1 61 131.2 61 121 C51.1 121 41.2 121 31 121 C31 111.1 31 101.2 31 91 C40.9 91 50.8 91 61 91 C61 80.77 61 70.54 61 60 C51.1 60 41.2 60 31 60 C31 69.9 31 79.8 31 90 C0.97 90 -29.06 90 -60 90 C-60 100.23 -60 110.46 -60 121 C-40.2 121 -20.4 121 0 121 C0 130.9 0 140.8 0 151 C-9.9 151 -19.8 151 -30 151 C-30 160.9 -30 170.8 -30 181 C-19.77 181 -9.54 181 1 181 C1 211.03 1 241.06 1 272 C30.7 272 60.4 272 91 272 C91 241.97 91 211.94 91 181 C101.23 181 111.46 181 122 181 C122 201.13 122 221.26 122 242 C131.9 242 141.8 242 152 242 C152 251.9 152 261.8 152 272 C182.03 272 212.06 272 243 272 C243 292.13 243 312.26 243 333 C233.1 333 223.2 333 213 333 C213 323.1 213 313.2 213 303 C202.77 303 192.54 303 182 303 C182 312.9 182 322.8 182 333 C151.97 333 121.94 333 91 333 C91 353.13 91 373.26 91 394 C101.23 394 111.46 394 122 394 C122 403.9 122 413.8 122 424 C101.87 424 81.74 424 61 424 C61 413.77 61 403.54 61 393 C51.1 393 41.2 393 31 393 C31 383.1 31 373.2 31 363 C21.1 363 11.2 363 1 363 C1 343.2 1 323.4 1 303 C-9.23 303 -19.46 303 -30 303 C-30 322.8 -30 342.6 -30 363 C-39.9 363 -49.8 363 -60 363 C-60 323.07 -60 283.14 -60 242 C-69.9 242 -79.8 242 -90 242 C-90 191.84 -90 141.68 -90 90 C-100.23 90 -110.46 90 -121 90 C-121 140.16 -121 190.32 -121 242 C-130.9 242 -140.8 242 -151 242 C-151 181.94 -151 121.88 -151 60 C-101.17 60 -51.34 60 0 60 C0 40.2 0 20.4 0 0 Z " fill="#010101" transform="translate(454,61)"/>
<path d="M0 0 C50.16 0 100.32 0 152 0 C152 9.9 152 19.8 152 30 C141.77 30 131.54 30 121 30 C121 40.23 121 50.46 121 61 C111.1 61 101.2 61 91 61 C91 70.9 91 80.8 91 91 C100.9 91 110.8 91 121 91 C121 100.9 121 110.8 121 121 C131.23 121 141.46 121 152 121 C152 111.1 152 101.2 152 91 C142.1 91 132.2 91 122 91 C122 81.1 122 71.2 122 61 C151.7 61 181.4 61 212 61 C212 80.8 212 100.6 212 121 C202.1 121 192.2 121 182 121 C182 130.9 182 140.8 182 151 C142.07 151 102.14 151 61 151 C61 161.23 61 171.46 61 182 C111.16 182 161.32 182 213 182 C213 172.1 213 162.2 213 152 C242.7 152 272.4 152 303 152 C303 161.9 303 171.8 303 182 C312.9 182 322.8 182 333 182 C333 201.8 333 221.6 333 242 C323.1 242 313.2 242 303 242 C303 232.1 303 222.2 303 212 C293.1 212 283.2 212 273 212 C273 202.1 273 192.2 273 182 C262.77 182 252.54 182 242 182 C242 191.9 242 201.8 242 212 C182.27 212 122.54 212 61 212 C61 232.13 61 252.26 61 273 C70.9 273 80.8 273 91 273 C91 262.77 91 252.54 91 242 C111.13 242 131.26 242 152 242 C152 252.23 152 262.46 152 273 C161.9 273 171.8 273 182 273 C182 263.1 182 253.2 182 243 C201.8 243 221.6 243 242 243 C242 252.57 242 262.14 242 272 C232.1 272 222.2 272 212 272 C212 282.23 212 292.46 212 303 C221.9 303 231.8 303 242 303 C242 312.9 242 322.8 242 333 C252.23 333 262.46 333 273 333 C273 343.23 273 353.46 273 364 C233.07 364 193.14 364 152 364 C152 353.77 152 343.54 152 333 C121.97 333 91.94 333 61 333 C61 353.13 61 373.26 61 394 C50.77 394 40.54 394 30 394 C30 384.1 30 374.2 30 364 C20.1 364 10.2 364 0 364 C0 353.77 0 343.54 0 333 C9.9 333 19.8 333 30 333 C30 323.1 30 313.2 30 303 C20.1 303 10.2 303 0 303 C0 283.2 0 263.4 0 243 C-19.70106339 243.03961196 -19.70106339 243.03961196 -39.40209961 243.09008789 C-41.86051388 243.09300678 -44.31892864 243.0955554 -46.77734375 243.09765625 C-48.0677356 243.10277222 -49.35812744 243.10788818 -50.68762207 243.11315918 C-52.51468689 243.11334045 -52.51468689 243.11334045 -54.37866211 243.11352539 C-55.44233505 243.115746 -56.506008 243.11796661 -57.60191345 243.12025452 C-60 243 -60 243 -61 242 C-61 232.1 -61 222.2 -61 212 C-40.87 212 -20.74 212 0 212 C0 221.9 0 231.8 0 242 C9.9 242 19.8 242 30 242 C30 192.17 30 142.34 30 91 C40.23 91 50.46 91 61 91 C61 81.1 61 71.2 61 61 C40.87 61 20.74 61 0 61 C0 40.87 0 20.74 0 0 Z " fill="#020202" transform="translate(121,303)"/>
<path d="M0 0 C70.29 0 140.58 0 213 0 C213 70.29 213 140.58 213 213 C160.5609375 213.0309375 160.5609375 213.0309375 107.0625 213.0625 C96.00371338 213.071604 84.94492676 213.08070801 73.55102539 213.09008789 C60.09851074 213.09460449 60.09851074 213.09460449 53.81077576 213.09544373 C49.39748131 213.09637942 44.98419876 213.10014286 40.57090759 213.10557556 C34.95289437 213.11240036 29.33489862 213.11449755 23.71688163 213.11307228 C21.64794183 213.1133706 19.57900146 213.11537369 17.5100652 213.11921513 C14.72955233 213.12414063 11.9491086 213.12300785 9.16859436 213.12025452 C8.3468595 213.12316718 7.52512465 213.12607985 6.67848873 213.12908077 C1.11412483 213.11412483 1.11412483 213.11412483 0 212 C-0.09786505 209.26885246 -0.12993668 206.56298399 -0.12025452 203.83140564 C-0.12111053 202.96693817 -0.12196655 202.1024707 -0.12284851 201.21180725 C-0.12451409 198.28303009 -0.11896331 195.35430911 -0.11352539 192.42553711 C-0.11321931 190.30280592 -0.11335212 188.18007463 -0.11389065 186.05734348 C-0.11411723 180.35146555 -0.10830406 174.64560842 -0.10128021 168.93973541 C-0.09560267 163.59365266 -0.09531804 158.24757508 -0.09460449 152.90148926 C-0.08934853 137.2468234 -0.0753875 121.59216144 -0.0625 105.9375 C-0.041875 70.978125 -0.02125 36.01875 0 0 Z " fill="#FEFEFE" transform="translate(60,727)"/>
<path d="M0 0 C52.4390625 -0.0309375 52.4390625 -0.0309375 105.9375 -0.0625 C116.99628662 -0.071604 128.05507324 -0.08070801 139.44897461 -0.09008789 C152.90148926 -0.09460449 152.90148926 -0.09460449 159.18922424 -0.09544373 C163.60251869 -0.09637942 168.01580124 -0.10014286 172.42909241 -0.10557556 C178.04710563 -0.11240036 183.66510138 -0.11449755 189.28311837 -0.11307228 C191.35205817 -0.1133706 193.42099854 -0.11537369 195.4899348 -0.11921513 C198.27044767 -0.12414063 201.0508914 -0.12300785 203.83140564 -0.12025452 C204.6531405 -0.12316718 205.47487535 -0.12607985 206.32151127 -0.12908077 C211.88587517 -0.11412483 211.88587517 -0.11412483 213 1 C213.09786505 3.73114754 213.12993668 6.43701601 213.12025452 9.16859436 C213.12153854 10.46529556 213.12153854 10.46529556 213.12284851 11.78819275 C213.12451409 14.71696991 213.11896331 17.64569089 213.11352539 20.57446289 C213.11321931 22.69719408 213.11335212 24.81992537 213.11389065 26.94265652 C213.11411723 32.64853445 213.10830406 38.35439158 213.10128021 44.06026459 C213.09560267 49.40634734 213.09531804 54.75242492 213.09460449 60.09851074 C213.08934853 75.7531766 213.0753875 91.40783856 213.0625 107.0625 C213.041875 142.021875 213.02125 176.98125 213 213 C142.71 213 72.42 213 0 213 C0 142.71 0 72.42 0 0 Z " fill="#FEFEFE" transform="translate(727,60)"/>
<path d="M0 0 C1.23260229 0.004369 1.23260229 0.004369 2.49010563 0.00882626 C3.3545731 0.00797024 4.21904057 0.00711422 5.10970402 0.00623226 C8.03848118 0.00456668 10.96720215 0.01011746 13.89597416 0.01555538 C16.01870535 0.01586146 18.14143664 0.01572866 20.26416779 0.01519012 C25.97004572 0.01496354 31.67590285 0.02077671 37.38177586 0.02780056 C42.72785861 0.0334781 48.07393619 0.03376273 53.42002201 0.03447628 C69.07468787 0.03973224 84.72934983 0.05369327 100.38401127 0.06658077 C135.34338627 0.08720577 170.30276127 0.10783077 206.32151127 0.12908077 C206.32151127 70.41908077 206.32151127 140.70908077 206.32151127 213.12908077 C136.03151127 213.12908077 65.74151127 213.12908077 -6.67848873 213.12908077 C-6.69911373 178.16970577 -6.71973873 143.21033077 -6.74098873 107.19158077 C-6.75009274 96.13279415 -6.75919674 85.07400753 -6.76857662 73.68010616 C-6.77309322 60.22759151 -6.77309322 60.22759151 -6.77393246 53.93985653 C-6.77486815 49.52656208 -6.77863159 45.11327953 -6.78406429 40.69998837 C-6.7908891 35.08197514 -6.79298629 29.46397939 -6.79156101 23.84596241 C-6.79185933 21.7770226 -6.79386242 19.70808223 -6.79770386 17.63914597 C-6.80262936 14.8586331 -6.80149659 12.07818937 -6.79874325 9.29767513 C-6.80165591 8.47594028 -6.80456858 7.65420542 -6.8075695 6.8075695 C-6.78986818 0.22178672 -6.58578279 0.01770133 0 0 Z " fill="#FEFEFE" transform="translate(66.67848873138428,59.8709192276001)"/>
<path d="M0 0 C39.93 0 79.86 0 121 0 C121 9.9 121 19.8 121 30 C131.23 30 141.46 30 152 30 C152 39.9 152 49.8 152 60 C141.77 60 131.54 60 121 60 C121 80.13 121 100.26 121 121 C131.23 121 141.46 121 152 121 C152 130.9 152 140.8 152 151 C131.87 151 111.74 151 91 151 C91 141.1 91 131.2 91 121 C81.1 121 71.2 121 61 121 C61 111.1 61 101.2 61 91 C51.1 91 41.2 91 31 91 C31 130.93 31 170.86 31 212 C20.77 212 10.54 212 0 212 C0 221.9 0 231.8 0 242 C-9.9 242 -19.8 242 -30 242 C-30 282.26 -30 322.52 -30 364 C-60.03 364 -90.06 364 -121 364 C-121 353.77 -121 343.54 -121 333 C-111.1 333 -101.2 333 -91 333 C-91 323.1 -91 313.2 -91 303 C-100.9 303 -110.8 303 -121 303 C-121 263.07 -121 223.14 -121 182 C-111.1 182 -101.2 182 -91 182 C-91 212.03 -91 242.06 -91 273 C-80.77 273 -70.54 273 -60 273 C-60 232.74 -60 192.48 -60 151 C-80.13 151 -100.26 151 -121 151 C-121 141.1 -121 131.2 -121 121 C-90.97 121 -60.94 121 -30 121 C-30 111.1 -30 101.2 -30 91 C-20.1 91 -10.2 91 0 91 C0 60.97 0 30.94 0 0 Z " fill="#010101" transform="translate(424,576)"/>
<path d="M0 0 C70.29 0 140.58 0 213 0 C213 70.29 213 140.58 213 213 C160.5609375 213.0309375 160.5609375 213.0309375 107.0625 213.0625 C96.00371338 213.071604 84.94492676 213.08070801 73.55102539 213.09008789 C60.09851074 213.09460449 60.09851074 213.09460449 53.81077576 213.09544373 C49.39748131 213.09637942 44.98419876 213.10014286 40.57090759 213.10557556 C34.95289437 213.11240036 29.33489862 213.11449755 23.71688163 213.11307228 C21.64794183 213.1133706 19.57900146 213.11537369 17.5100652 213.11921513 C14.72955233 213.12414063 11.9491086 213.12300785 9.16859436 213.12025452 C8.3468595 213.12316718 7.52512465 213.12607985 6.67848873 213.12908077 C1.11412483 213.11412483 1.11412483 213.11412483 0 212 C-0.09786505 209.26885246 -0.12993668 206.56298399 -0.12025452 203.83140564 C-0.12111053 202.96693817 -0.12196655 202.1024707 -0.12284851 201.21180725 C-0.12451409 198.28303009 -0.11896331 195.35430911 -0.11352539 192.42553711 C-0.11321931 190.30280592 -0.11335212 188.18007463 -0.11389065 186.05734348 C-0.11411723 180.35146555 -0.10830406 174.64560842 -0.10128021 168.93973541 C-0.09560267 163.59365266 -0.09531804 158.24757508 -0.09460449 152.90148926 C-0.08934853 137.2468234 -0.0753875 121.59216144 -0.0625 105.9375 C-0.041875 70.978125 -0.02125 36.01875 0 0 Z M31 31 C31 80.83 31 130.66 31 182 C80.83 182 130.66 182 182 182 C182 132.17 182 82.34 182 31 C132.17 31 82.34 31 31 31 Z " fill="#050505" transform="translate(60,727)"/>
<path d="M0 0 C52.4390625 -0.0309375 52.4390625 -0.0309375 105.9375 -0.0625 C116.99628662 -0.071604 128.05507324 -0.08070801 139.44897461 -0.09008789 C152.90148926 -0.09460449 152.90148926 -0.09460449 159.18922424 -0.09544373 C163.60251869 -0.09637942 168.01580124 -0.10014286 172.42909241 -0.10557556 C178.04710563 -0.11240036 183.66510138 -0.11449755 189.28311837 -0.11307228 C191.35205817 -0.1133706 193.42099854 -0.11537369 195.4899348 -0.11921513 C198.27044767 -0.12414063 201.0508914 -0.12300785 203.83140564 -0.12025452 C204.6531405 -0.12316718 205.47487535 -0.12607985 206.32151127 -0.12908077 C211.88587517 -0.11412483 211.88587517 -0.11412483 213 1 C213.09786505 3.73114754 213.12993668 6.43701601 213.12025452 9.16859436 C213.12153854 10.46529556 213.12153854 10.46529556 213.12284851 11.78819275 C213.12451409 14.71696991 213.11896331 17.64569089 213.11352539 20.57446289 C213.11321931 22.69719408 213.11335212 24.81992537 213.11389065 26.94265652 C213.11411723 32.64853445 213.10830406 38.35439158 213.10128021 44.06026459 C213.09560267 49.40634734 213.09531804 54.75242492 213.09460449 60.09851074 C213.08934853 75.7531766 213.0753875 91.40783856 213.0625 107.0625 C213.041875 142.021875 213.02125 176.98125 213 213 C142.71 213 72.42 213 0 213 C0 142.71 0 72.42 0 0 Z M31 31 C31 80.83 31 130.66 31 182 C80.83 182 130.66 182 182 182 C182 132.17 182 82.34 182 31 C132.17 31 82.34 31 31 31 Z " fill="#050505" transform="translate(727,60)"/>
<path d="M0 0 C1.23260229 0.004369 1.23260229 0.004369 2.49010563 0.00882626 C3.3545731 0.00797024 4.21904057 0.00711422 5.10970402 0.00623226 C8.03848118 0.00456668 10.96720215 0.01011746 13.89597416 0.01555538 C16.01870535 0.01586146 18.14143664 0.01572866 20.26416779 0.01519012 C25.97004572 0.01496354 31.67590285 0.02077671 37.38177586 0.02780056 C42.72785861 0.0334781 48.07393619 0.03376273 53.42002201 0.03447628 C69.07468787 0.03973224 84.72934983 0.05369327 100.38401127 0.06658077 C135.34338627 0.08720577 170.30276127 0.10783077 206.32151127 0.12908077 C206.32151127 70.41908077 206.32151127 140.70908077 206.32151127 213.12908077 C136.03151127 213.12908077 65.74151127 213.12908077 -6.67848873 213.12908077 C-6.69911373 178.16970577 -6.71973873 143.21033077 -6.74098873 107.19158077 C-6.75009274 96.13279415 -6.75919674 85.07400753 -6.76857662 73.68010616 C-6.77309322 60.22759151 -6.77309322 60.22759151 -6.77393246 53.93985653 C-6.77486815 49.52656208 -6.77863159 45.11327953 -6.78406429 40.69998837 C-6.7908891 35.08197514 -6.79298629 29.46397939 -6.79156101 23.84596241 C-6.79185933 21.7770226 -6.79386242 19.70808223 -6.79770386 17.63914597 C-6.80262936 14.8586331 -6.80149659 12.07818937 -6.79874325 9.29767513 C-6.80165591 8.47594028 -6.80456858 7.65420542 -6.8075695 6.8075695 C-6.78986818 0.22178672 -6.58578279 0.01770133 0 0 Z M24.32151127 31.12908077 C24.32151127 80.95908077 24.32151127 130.78908077 24.32151127 182.12908077 C74.15151127 182.12908077 123.98151127 182.12908077 175.32151127 182.12908077 C175.32151127 132.29908077 175.32151127 82.46908077 175.32151127 31.12908077 C125.49151127 31.12908077 75.66151127 31.12908077 24.32151127 31.12908077 Z " fill="#050505" transform="translate(66.67848873138428,59.8709192276001)"/>
<path d="M0 0 C9.9 0 19.8 0 30 0 C30 9.9 30 19.8 30 30 C39.9 30 49.8 30 60 30 C60 39.9 60 49.8 60 60 C80.13 60 100.26 60 121 60 C121 69.9 121 79.8 121 90 C110.77 90 100.54 90 90 90 C90 100.23 90 110.46 90 121 C100.23 121 110.46 121 121 121 C121 140.8 121 160.6 121 181 C130.9 181 140.8 181 151 181 C151 181.33 151 181.66 151 182 C130.87 182 110.74 182 90 182 C90 171.77 90 161.54 90 151 C70.2 151 50.4 151 30 151 C30 160.9 30 170.8 30 181 C39.9 181 49.8 181 60 181 C60 191.23 60 201.46 60 212 C50.1 212 40.2 212 30 212 C30 221.9 30 231.8 30 242 C20.1 242 10.2 242 0 242 C0 211.97 0 181.94 0 151 C-10.23 151 -20.46 151 -31 151 C-31 141.1 -31 131.2 -31 121 C-20.77 121 -10.54 121 0 121 C0 81.07 0 41.14 0 0 Z " fill="#FCFCFC" transform="translate(455,667)"/>
<path d="M0 0 C10.23 0 20.46 0 31 0 C31 9.9 31 19.8 31 30 C40.9 30 50.8 30 61 30 C61 39.9 61 49.8 61 60 C70.9 60 80.8 60 91 60 C91 40.2 91 20.4 91 0 C91.33 0 91.66 0 92 0 C92 20.13 92 40.26 92 61 C81.77 61 71.54 61 61 61 C61 100.93 61 140.86 61 182 C51.1 182 41.2 182 31 182 C31 171.77 31 161.54 31 151 C20.77 151 10.54 151 0 151 C0 141.1 0 131.2 0 121 C-9.9 121 -19.8 121 -30 121 C-30 110.77 -30 100.54 -30 90 C-20.1 90 -10.2 90 0 90 C0 80.43 0 70.86 0 61 C-19.8 61 -39.6 61 -60 61 C-60 70.9 -60 80.8 -60 91 C-69.9 91 -79.8 91 -90 91 C-90 80.77 -90 70.54 -90 60 C-110.13 60 -130.26 60 -151 60 C-151 70.23 -151 80.46 -151 91 C-160.9 91 -170.8 91 -181 91 C-181 70.87 -181 50.74 -181 30 C-121.27 30 -61.54 30 0 30 C0 20.1 0 10.2 0 0 Z " fill="#020202" transform="translate(363,485)"/>
<path d="M0 0 C10.23 0 20.46 0 31 0 C31 20.13 31 40.26 31 61 C40.9 61 50.8 61 61 61 C61 80.8 61 100.6 61 121 C51.1 121 41.2 121 31 121 C31 131.23 31 141.46 31 152 C20.77 152 10.54 152 0 152 C0 141.77 0 131.54 0 121 C-19.8 121 -39.6 121 -60 121 C-60 111.1 -60 101.2 -60 91 C-90.03 91 -120.06 91 -151 91 C-151 80.77 -151 70.54 -151 60 C-111.07 60 -71.14 60 -30 60 C-30 50.1 -30 40.2 -30 30 C-20.1 30 -10.2 30 0 30 C0 20.1 0 10.2 0 0 Z " fill="#030303" transform="translate(848,788)"/>
<path d="M0 0 C20.13 0 40.26 0 61 0 C61 10.23 61 20.46 61 31 C70.9 31 80.8 31 91 31 C91 21.1 91 11.2 91 1 C110.8 1 130.6 1 151 1 C151 10.57 151 20.14 151 30 C141.1 30 131.2 30 121 30 C121 40.23 121 50.46 121 61 C130.9 61 140.8 61 151 61 C151 70.9 151 80.8 151 91 C161.23 91 171.46 91 182 91 C182 101.23 182 111.46 182 122 C142.07 122 102.14 122 61 122 C61 101.87 61 81.74 61 61 C40.87 61 20.74 61 0 61 C0 40.87 0 20.74 0 0 Z " fill="#010101" transform="translate(212,545)"/>
<path d="M0 0 C10.23 0 20.46 0 31 0 C31 30.03 31 60.06 31 91 C40.9 91 50.8 91 61 91 C61 81.1 61 71.2 61 61 C70.9 61 80.8 61 91 61 C91 50.77 91 40.54 91 30 C81.1 30 71.2 30 61 30 C61 20.1 61 10.2 61 0 C80.8 0 100.6 0 121 0 C121 10.23 121 20.46 121 31 C131.23 31 141.46 31 152 31 C152 40.9 152 50.8 152 61 C141.77 61 131.54 61 121 61 C121 81.13 121 101.26 121 122 C98.57917558 122.04010881 98.57917558 122.04010881 89.05664062 122.04882812 C82.54694814 122.05481686 76.03726965 122.06191797 69.52758789 122.07543945 C64.28214298 122.08626735 59.03671308 122.09227662 53.79125786 122.09487724 C51.78529054 122.09673167 49.77932408 122.10035262 47.77336311 122.10573006 C44.97397176 122.11293919 42.17464321 122.113991 39.37524414 122.11352539 C38.53727295 122.11712067 37.69930176 122.12071594 36.8359375 122.12442017 C31.11405216 122.11405216 31.11405216 122.11405216 30 121 C29.91216458 118.78144736 29.89305391 116.56011504 29.90234375 114.33984375 C29.90484131 113.12417725 29.90733887 111.90851074 29.90991211 110.65600586 C29.91901611 109.09889893 29.92812012 107.54179199 29.9375 105.9375 C29.958125 101.008125 29.97875 96.07875 30 91 C20.1 91 10.2 91 0 91 C0 60.97 0 30.94 0 0 Z " fill="#030303" transform="translate(424,818)"/>
<path d="M0 0 C30.03 0 60.06 0 91 0 C91 9.9 91 19.8 91 30 C81.1 30 71.2 30 61 30 C61 40.23 61 50.46 61 61 C70.9 61 80.8 61 91 61 C91 91.03 91 121.06 91 152 C81.1 152 71.2 152 61 152 C61 131.87 61 111.74 61 91 C50.77 91 40.54 91 30 91 C30 111.13 30 131.26 30 152 C20.1 152 10.2 152 0 152 C0 121.97 0 91.94 0 61 C9.9 61 19.8 61 30 61 C30 50.77 30 40.54 30 30 C20.1 30 10.2 30 0 30 C0 20.1 0 10.2 0 0 Z " fill="#010101" transform="translate(606,121)"/>
<path d="M0 0 C9.9 0 19.8 0 30 0 C30 9.9 30 19.8 30 30 C39.9 30 49.8 30 60 30 C60 50.13 60 70.26 60 91 C70.23 91 80.46 91 91 91 C91 100.9 91 110.8 91 121 C60.97 121 30.94 121 0 121 C0 111.1 0 101.2 0 91 C-10.23 91 -20.46 91 -31 91 C-31 70.87 -31 50.74 -31 30 C-20.77 30 -10.54 30 0 30 C0 20.1 0 10.2 0 0 Z " fill="#FCFCFC" transform="translate(576,606)"/>
<path d="M0 0 C50.16 0 100.32 0 152 0 C152 9.9 152 19.8 152 30 C131.87 30 111.74 30 91 30 C91 40.23 91 50.46 91 61 C81.1 61 71.2 61 61 61 C61 70.9 61 80.8 61 91 C50.77 91 40.54 91 30 91 C30 81.1 30 71.2 30 61 C20.1 61 10.2 61 0 61 C0 40.87 0 20.74 0 0 Z " fill="#010101" transform="translate(727,303)"/>
<path d="M0 0 C30.03 0 60.06 0 91 0 C91 30.03 91 60.06 91 91 C60.97 91 30.94 91 0 91 C0 60.97 0 30.94 0 0 Z " fill="#010101" transform="translate(121,788)"/>
<path d="M0 0 C30.03 0 60.06 0 91 0 C91 30.03 91 60.06 91 91 C60.97 91 30.94 91 0 91 C0 60.97 0 30.94 0 0 Z " fill="#FEFEFE" transform="translate(697,697)"/>
<path d="M0 0 C30.03 0 60.06 0 91 0 C91 9.9 91 19.8 91 30 C111.13 30 131.26 30 152 30 C152 39.9 152 49.8 152 60 C131.87 60 111.74 60 91 60 C91 70.23 91 80.46 91 91 C60.97 91 30.94 91 0 91 C0 80.77 0 70.54 0 60 C20.13 60 40.26 60 61 60 C61 50.1 61 40.2 61 30 C40.87 30 20.74 30 0 30 C0 20.1 0 10.2 0 0 Z " fill="#FCFCFC" transform="translate(727,485)"/>
<path d="M0 0 C30.03 0 60.06 0 91 0 C91 30.03 91 60.06 91 91 C60.97 91 30.94 91 0 91 C0 60.97 0 30.94 0 0 Z " fill="#010101" transform="translate(788,121)"/>
<path d="M0 0 C30.03 0 60.06 0 91 0 C91 30.03 91 60.06 91 91 C60.97 91 30.94 91 0 91 C0 60.97 0 30.94 0 0 Z " fill="#010101" transform="translate(121,121)"/>
<path d="M0 0 C50.16 0 100.32 0 152 0 C152 9.9 152 19.8 152 30 C141.77 30 131.54 30 121 30 C121 40.23 121 50.46 121 61 C111.1 61 101.2 61 91 61 C91 50.77 91 40.54 91 30 C81.1 30 71.2 30 61 30 C61 40.23 61 50.46 61 61 C40.87 61 20.74 61 0 61 C0 40.87 0 20.74 0 0 Z " fill="#010101" transform="translate(121,303)"/>
<path d="M0 0 C59.73 0 119.46 0 181 0 C181 9.9 181 19.8 181 30 C161.2 30 141.4 30 121 30 C121 40.23 121 50.46 121 61 C111.1 61 101.2 61 91 61 C91 50.77 91 40.54 91 30 C70.87 30 50.74 30 30 30 C30 40.23 30 50.46 30 61 C20.1 61 10.2 61 0 61 C0 40.87 0 20.74 0 0 Z " fill="#FCFCFC" transform="translate(182,515)"/>
<path d="M0 0 C9.9 0 19.8 0 30 0 C30 9.9 30 19.8 30 30 C50.13 30 70.26 30 91 30 C91 39.9 91 49.8 91 60 C60.97 60 30.94 60 0 60 C0 80.13 0 100.26 0 121 C-9.9 121 -19.8 121 -30 121 C-30 110.77 -30 100.54 -30 90 C-39.9 90 -49.8 90 -60 90 C-60 80.43 -60 70.86 -60 61 C-50.1 61 -40.2 61 -30 61 C-30 50.77 -30 40.54 -30 30 C-20.1 30 -10.2 30 0 30 C0 20.1 0 10.2 0 0 Z " fill="#000000" transform="translate(182,576)"/>
<path d="M0 0 C10.23 0 20.46 0 31 0 C31 19.8 31 39.6 31 60 C40.9 60 50.8 60 61 60 C61 70.23 61 80.46 61 91 C51.1 91 41.2 91 31 91 C31 100.9 31 110.8 31 121 C20.77 121 10.54 121 0 121 C0 111.1 0 101.2 0 91 C-20.13 91 -40.26 91 -61 91 C-61 80.77 -61 70.54 -61 60 C-40.87 60 -20.74 60 0 60 C0 40.2 0 20.4 0 0 Z " fill="#F9F9F9" transform="translate(818,576)"/>
<path d="M0 0 C9.9 0 19.8 0 30 0 C30 10.23 30 20.46 30 31 C49.8 31 69.6 31 90 31 C90 50.47 90 69.94 90 90 C80.1 90 70.2 90 60 90 C60 100.23 60 110.46 60 121 C50.1 121 40.2 121 30 121 C30 100.87 30 80.74 30 60 C20.1 60 10.2 60 0 60 C0 40.2 0 20.4 0 0 Z " fill="#000000" transform="translate(576,788)"/>
<path d="M0 0 C10.23 0 20.46 0 31 0 C31 9.9 31 19.8 31 30 C40.9 30 50.8 30 61 30 C61 40.23 61 50.46 61 61 C40.87 61 20.74 61 0 61 C0 70.9 0 80.8 0 91 C-30.03 91 -60.06 91 -91 91 C-91 80.77 -91 70.54 -91 60 C-60.97 60 -30.94 60 0 60 C0 40.2 0 20.4 0 0 Z " fill="#0C0C0C" transform="translate(818,394)"/>
<path d="M0 0 C49.83 0 99.66 0 151 0 C151 9.9 151 19.8 151 30 C111.07 30 71.14 30 30 30 C30 40.23 30 50.46 30 61 C20.1 61 10.2 61 0 61 C0 40.87 0 20.74 0 0 Z " fill="#FCFCFC" transform="translate(667,818)"/>
<path d="M0 0 C9.9 0 19.8 0 30 0 C30 10.23 30 20.46 30 31 C20.1 31 10.2 31 0 31 C0 60.7 0 90.4 0 121 C-9.9 121 -19.8 121 -30 121 C-30 101.2 -30 81.4 -30 61 C-40.23 61 -50.46 61 -61 61 C-61 50.77 -61 40.54 -61 30 C-40.87 30 -20.74 30 0 30 C0 20.1 0 10.2 0 0 Z " fill="#020202" transform="translate(879,515)"/>
<path d="M0 0 C29.7 0 59.4 0 90 0 C90 19.8 90 39.6 90 60 C70.2 60 50.4 60 30 60 C30 50.1 30 40.2 30 30 C20.1 30 10.2 30 0 30 C0 20.1 0 10.2 0 0 Z " fill="#FEFEFE" transform="translate(576,758)"/>
<path d="M0 0 C9.9 0 19.8 0 30 0 C30 30.03 30 60.06 30 91 C20.1 91 10.2 91 0 91 C0 80.77 0 70.54 0 60 C-9.9 60 -19.8 60 -30 60 C-30 50.1 -30 40.2 -30 30 C-20.1 30 -10.2 30 0 30 C0 20.1 0 10.2 0 0 Z " fill="#FEFEFE" transform="translate(394,576)"/>
<path d="M0 0 C9.9 0 19.8 0 30 0 C30 39.93 30 79.86 30 121 C20.1 121 10.2 121 0 121 C0 81.07 0 41.14 0 0 Z " fill="#000000" transform="translate(61,576)"/>
<path d="M0 0 C9.57 0 19.14 0 29 0 C29 19.8 29 39.6 29 60 C39.23 60 49.46 60 60 60 C60 69.9 60 79.8 60 90 C40.2 90 20.4 90 0 90 C0 60.3 0 30.6 0 0 Z " fill="#000000" transform="translate(546,243)"/>
<path d="M0 0 C20.13 0 40.26 0 61 0 C61 9.9 61 19.8 61 30 C51.1 30 41.2 30 31 30 C31 40.23 31 50.46 31 61 C20.77 61 10.54 61 0 61 C0 40.87 0 20.74 0 0 Z " fill="#F9F9F9" transform="translate(545,121)"/>
<path d="M0 0 C9.9 0 19.8 0 30 0 C30 20.13 30 40.26 30 61 C9.87 61 -10.26 61 -31 61 C-31 31 -31 31 -30 30 C-27.78144736 29.91216458 -25.56011504 29.89305391 -23.33984375 29.90234375 C-22.12417725 29.90484131 -20.90851074 29.90733887 -19.65600586 29.90991211 C-18.09889893 29.91901611 -16.54179199 29.92812012 -14.9375 29.9375 C-10.008125 29.958125 -5.07875 29.97875 0 30 C0 20.1 0 10.2 0 0 Z " fill="#050505" transform="translate(91,424)"/>
<path d="M0 0 C20.13 0 40.26 0 61 0 C61 9.9 61 19.8 61 30 C50.77 30 40.54 30 30 30 C30 39.9 30 49.8 30 60 C20.1 60 10.2 60 0 60 C0 40.2 0 20.4 0 0 Z " fill="#FDFDFD" transform="translate(818,758)"/>
<path d="M0 0 C30.03 0 60.06 0 91 0 C91 9.9 91 19.8 91 30 C60.97 30 30.94 30 0 30 C0 20.1 0 10.2 0 0 Z " fill="#FCFCFC" transform="translate(606,546)"/>
<path d="M0 0 C19.8 0 39.6 0 60 0 C60 19.8 60 39.6 60 60 C50.1 60 40.2 60 30 60 C30 50.1 30 40.2 30 30 C20.1 30 10.2 30 0 30 C0 20.1 0 10.2 0 0 Z " fill="#000000" transform="translate(879,758)"/>
<path d="M0 0 C29.7 0 59.4 0 90 0 C90 9.57 90 19.14 90 29 C60.3 29 30.6 29 0 29 C0 19.43 0 9.86 0 0 Z " fill="#000000" transform="translate(728,455)"/>
<path d="M0 0 C20.13 0 40.26 0 61 0 C61 10.23 61 20.46 61 31 C40.87 31 20.74 31 0 31 C0 20.77 0 10.54 0 0 Z " fill="#070707" transform="translate(212,545)"/>
<path d="M0 0 C20.13 0 40.26 0 61 0 C61 10.23 61 20.46 61 31 C40.87 31 20.74 31 0 31 C0 20.77 0 10.54 0 0 Z " fill="#050505" transform="translate(333,60)"/>
<path d="M0 0 C19.8 0 39.6 0 60 0 C60 10.23 60 20.46 60 31 C40.2 31 20.4 31 0 31 C0 20.77 0 10.54 0 0 Z " fill="#FAFAFA" transform="translate(546,333)"/>
<path d="M0 0 C19.8 0 39.6 0 60 0 C60 10.23 60 20.46 60 31 C40.2 31 20.4 31 0 31 C0 20.77 0 10.54 0 0 Z " fill="#090909" transform="translate(576,151)"/>
<path d="M0 0 C9.9 0 19.8 0 30 0 C30 20.13 30 40.26 30 61 C20.1 61 10.2 61 0 61 C0 40.87 0 20.74 0 0 Z " fill="#FDFDFD" transform="translate(394,727)"/>
<path d="M0 0 C20.13 0 40.26 0 61 0 C61 9.9 61 19.8 61 30 C40.87 30 20.74 30 0 30 C0 20.1 0 10.2 0 0 Z " fill="#FDFDFD" transform="translate(212,576)"/>
<path d="M0 0 C20.13 0 40.26 0 61 0 C61 9.9 61 19.8 61 30 C40.87 30 20.74 30 0 30 C0 20.1 0 10.2 0 0 Z " fill="#010101" transform="translate(818,485)"/>
<path d="M0 0 C9.9 0 19.8 0 30 0 C30 19.8 30 39.6 30 60 C20.1 60 10.2 60 0 60 C0 40.2 0 20.4 0 0 Z " fill="#000000" transform="translate(61,364)"/>
<path d="M0 0 C9.9 0 19.8 0 30 0 C30 19.8 30 39.6 30 60 C20.1 60 10.2 60 0 60 C0 40.2 0 20.4 0 0 Z " fill="#000000" transform="translate(485,243)"/>
<path d="M0 0 C9.9 0 19.8 0 30 0 C30 10.23 30 20.46 30 31 C-9.93 31 -49.86 31 -91 31 C-91 30.67 -91 30.34 -91 30 C-60.97 30 -30.94 30 0 30 C0 20.1 0 10.2 0 0 Z " fill="#EDEDED" transform="translate(485,121)"/>
<path d="M0 0 C9.9 0 19.8 0 30 0 C30 10.23 30 20.46 30 31 C-0.03 31 -30.06 31 -61 31 C-61 30.67 -61 30.34 -61 30 C-40.87 30 -20.74 30 0 30 C0 20.1 0 10.2 0 0 Z " fill="#0D0D0D" transform="translate(879,515)"/>
<path d="M0 0 C10.23 0 20.46 0 31 0 C31 10.23 31 20.46 31 31 C20.77 31 10.54 31 0 31 C0 20.77 0 10.54 0 0 Z " fill="#0B0B0B" transform="translate(727,727)"/>
<path d="M0 0 C9.9 0 19.8 0 30 0 C30 10.23 30 20.46 30 31 C20.1 31 10.2 31 0 31 C0 20.77 0 10.54 0 0 Z " fill="#050505" transform="translate(758,909)"/>
<path d="M0 0 C9.9 0 19.8 0 30 0 C30 10.23 30 20.46 30 31 C20.1 31 10.2 31 0 31 C0 20.77 0 10.54 0 0 Z " fill="#FAFAFA" transform="translate(485,636)"/>
<path d="M0 0 C9.9 0 19.8 0 30 0 C30 10.23 30 20.46 30 31 C20.1 31 10.2 31 0 31 C0 20.77 0 10.54 0 0 Z " fill="#060606" transform="translate(485,515)"/>
<path d="M0 0 C10.23 0 20.46 0 31 0 C31 9.9 31 19.8 31 30 C20.77 30 10.54 30 0 30 C0 20.1 0 10.2 0 0 Z " fill="#070707" transform="translate(909,455)"/>
<path d="M0 0 C9.9 0 19.8 0 30 0 C30 10.23 30 20.46 30 31 C20.1 31 10.2 31 0 31 C0 20.77 0 10.54 0 0 Z " fill="#040404" transform="translate(909,333)"/>
<path d="M0 0 C9.9 0 19.8 0 30 0 C30 10.23 30 20.46 30 31 C20.1 31 10.2 31 0 31 C0 20.77 0 10.54 0 0 Z " fill="#FAFAFA" transform="translate(182,333)"/>
<path d="M0 0 C9.9 0 19.8 0 30 0 C30 9.9 30 19.8 30 30 C20.1 30 10.2 30 0 30 C0 20.1 0 10.2 0 0 Z " fill="#010101" transform="translate(849,909)"/>
<path d="M0 0 C9.9 0 19.8 0 30 0 C30 9.9 30 19.8 30 30 C20.1 30 10.2 30 0 30 C0 20.1 0 10.2 0 0 Z " fill="#000000" transform="translate(576,909)"/>
<path d="M0 0 C9.9 0 19.8 0 30 0 C30 9.9 30 19.8 30 30 C20.1 30 10.2 30 0 30 C0 20.1 0 10.2 0 0 Z " fill="#FDFDFD" transform="translate(849,879)"/>
<path d="M0 0 C9.9 0 19.8 0 30 0 C30 9.9 30 19.8 30 30 C20.1 30 10.2 30 0 30 C0 20.1 0 10.2 0 0 Z " fill="#000000" transform="translate(667,879)"/>
<path d="M0 0 C9.9 0 19.8 0 30 0 C30 9.9 30 19.8 30 30 C20.1 30 10.2 30 0 30 C0 20.1 0 10.2 0 0 Z " fill="#000000" transform="translate(485,758)"/>
<path d="M0 0 C9.9 0 19.8 0 30 0 C30 9.9 30 19.8 30 30 C20.1 30 10.2 30 0 30 C0 20.1 0 10.2 0 0 Z " fill="#000000" transform="translate(576,667)"/>
<path d="M0 0 C9.9 0 19.8 0 30 0 C30 9.9 30 19.8 30 30 C20.1 30 10.2 30 0 30 C0 20.1 0 10.2 0 0 Z " fill="#020202" transform="translate(243,667)"/>
<path d="M0 0 C9.9 0 19.8 0 30 0 C30 9.9 30 19.8 30 30 C20.1 30 10.2 30 0 30 C0 20.1 0 10.2 0 0 Z " fill="#FFFFFF" transform="translate(697,606)"/>
<path d="M0 0 C9.9 0 19.8 0 30 0 C30 9.9 30 19.8 30 30 C20.1 30 10.2 30 0 30 C0 20.1 0 10.2 0 0 Z " fill="#FCFCFC" transform="translate(637,606)"/>
<path d="M0 0 C9.9 0 19.8 0 30 0 C30 9.9 30 19.8 30 30 C20.1 30 10.2 30 0 30 C0 20.1 0 10.2 0 0 Z " fill="#FFFFFF" transform="translate(273,606)"/>
<path d="M0 0 C9.9 0 19.8 0 30 0 C30 9.9 30 19.8 30 30 C20.1 30 10.2 30 0 30 C0 20.1 0 10.2 0 0 Z " fill="#000000" transform="translate(909,576)"/>
<path d="M0 0 C9.9 0 19.8 0 30 0 C30 9.9 30 19.8 30 30 C20.1 30 10.2 30 0 30 C0 20.1 0 10.2 0 0 Z " fill="#FCFCFC" transform="translate(546,576)"/>
<path d="M0 0 C9.9 0 19.8 0 30 0 C30 9.9 30 19.8 30 30 C20.1 30 10.2 30 0 30 C0 20.1 0 10.2 0 0 Z " fill="#000000" transform="translate(364,576)"/>
<path d="M0 0 C9.9 0 19.8 0 30 0 C30 9.9 30 19.8 30 30 C20.1 30 10.2 30 0 30 C0 20.1 0 10.2 0 0 Z " fill="#FCFCFC" transform="translate(333,576)"/>
<path d="M0 0 C9.9 0 19.8 0 30 0 C30 9.9 30 19.8 30 30 C20.1 30 10.2 30 0 30 C0 20.1 0 10.2 0 0 Z " fill="#FDFDFD" transform="translate(152,576)"/>
<path d="M0 0 C9.9 0 19.8 0 30 0 C30 9.9 30 19.8 30 30 C20.1 30 10.2 30 0 30 C0 20.1 0 10.2 0 0 Z " fill="#020202" transform="translate(394,546)"/>
<path d="M0 0 C9.9 0 19.8 0 30 0 C30 9.9 30 19.8 30 30 C20.1 30 10.2 30 0 30 C0 20.1 0 10.2 0 0 Z " fill="#FCFCFC" transform="translate(364,546)"/>
<path d="M0 0 C9.9 0 19.8 0 30 0 C30 9.9 30 19.8 30 30 C20.1 30 10.2 30 0 30 C0 20.1 0 10.2 0 0 Z " fill="#FCFCFC" transform="translate(576,515)"/>
<path d="M0 0 C9.9 0 19.8 0 30 0 C30 9.9 30 19.8 30 30 C20.1 30 10.2 30 0 30 C0 20.1 0 10.2 0 0 Z " fill="#FCFCFC" transform="translate(394,515)"/>
<path d="M0 0 C9.9 0 19.8 0 30 0 C30 9.9 30 19.8 30 30 C20.1 30 10.2 30 0 30 C0 20.1 0 10.2 0 0 Z " fill="#FEFEFE" transform="translate(364,485)"/>
<path d="M0 0 C9.9 0 19.8 0 30 0 C30 9.9 30 19.8 30 30 C20.1 30 10.2 30 0 30 C0 20.1 0 10.2 0 0 Z " fill="#020202" transform="translate(576,424)"/>
<path d="M0 0 C9.9 0 19.8 0 30 0 C30 9.9 30 19.8 30 30 C20.1 30 10.2 30 0 30 C0 20.1 0 10.2 0 0 Z " fill="#000000" transform="translate(879,394)"/>
<path d="M0 0 C9.9 0 19.8 0 30 0 C30 9.9 30 19.8 30 30 C20.1 30 10.2 30 0 30 C0 20.1 0 10.2 0 0 Z " fill="#000000" transform="translate(697,394)"/>
<path d="M0 0 C9.9 0 19.8 0 30 0 C30 9.9 30 19.8 30 30 C20.1 30 10.2 30 0 30 C0 20.1 0 10.2 0 0 Z " fill="#FFFFFF" transform="translate(485,394)"/>
<path d="M0 0 C9.9 0 19.8 0 30 0 C30 9.9 30 19.8 30 30 C20.1 30 10.2 30 0 30 C0 20.1 0 10.2 0 0 Z " fill="#FDFDFD" transform="translate(212,364)"/>
<path d="M0 0 C9.9 0 19.8 0 30 0 C30 9.9 30 19.8 30 30 C20.1 30 10.2 30 0 30 C0 20.1 0 10.2 0 0 Z " fill="#000000" transform="translate(61,303)"/>
<path d="M0 0 C9.9 0 19.8 0 30 0 C30 9.9 30 19.8 30 30 C20.1 30 10.2 30 0 30 C0 20.1 0 10.2 0 0 Z " fill="#FCFCFC" transform="translate(394,243)"/>
<path d="M0 0 C9.9 0 19.8 0 30 0 C30 9.9 30 19.8 30 30 C20.1 30 10.2 30 0 30 C0 20.1 0 10.2 0 0 Z " fill="#FCFCFC" transform="translate(606,152)"/>
<path d="M0 0 C9.57 0 19.14 0 29 0 C29 9.9 29 19.8 29 30 C19.43 30 9.86 30 0 30 C0 20.1 0 10.2 0 0 Z " fill="#000000" transform="translate(637,909)"/>
<path d="M0 0 C9.57 0 19.14 0 29 0 C29 9.9 29 19.8 29 30 C19.43 30 9.86 30 0 30 C0 20.1 0 10.2 0 0 Z " fill="#FFFFFF" transform="translate(637,879)"/>
<path d="M0 0 C9.57 0 19.14 0 29 0 C29 9.9 29 19.8 29 30 C19.43 30 9.86 30 0 30 C0 20.1 0 10.2 0 0 Z " fill="#000000" transform="translate(546,758)"/>
<path d="M0 0 C9.57 0 19.14 0 29 0 C29 9.9 29 19.8 29 30 C19.43 30 9.86 30 0 30 C0 20.1 0 10.2 0 0 Z " fill="#FFFFFF" transform="translate(637,485)"/>
<path d="M0 0 C0.33 0 0.66 0 1 0 C1 19.8 1 39.6 1 60 C30.7 60 60.4 60 91 60 C91 40.2 91 20.4 91 0 C91.33 0 91.66 0 92 0 C92 20.13 92 40.26 92 61 C61.97 61 31.94 61 1 61 C1 90.7 1 120.4 1 151 C0.67 151 0.34 151 0 151 C0 131.2 0 111.4 0 91 C-9.9 91 -19.8 91 -30 91 C-30 90.67 -30 90.34 -30 90 C-20.1 90 -10.2 90 0 90 C0 80.43 0 70.86 0 61 C-19.8 61 -39.6 61 -60 61 C-60 60.67 -60 60.34 -60 60 C-40.2 60 -20.4 60 0 60 C0 40.2 0 20.4 0 0 Z " fill="#757575" transform="translate(363,485)"/>
</svg>
